<svg xmlns="http://www.w3.org/2000/svg" width="21" height="20" viewBox="0 0 21 20"><defs><style>.a{fill:#fff2db;stroke-linejoin:round;}.b,.c{stroke:none;}.c{fill:#d9b97e;}</style></defs><g class="a"><path class="b" d="M 8.091309547424316 19.49984741210938 L 4.318359851837158 19.49869346618652 L 4.318359851837158 9.599610328674316 L 4.318359851837158 9.099610328674316 L 3.818360090255737 9.099610328674316 L 1.287954568862915 9.099610328674316 L 10.50047492980957 0.6774691939353943 L 19.71213531494141 9.099610328674316 L 17.18506050109863 9.099610328674316 L 16.68506050109863 9.099610328674316 L 16.68506050109863 9.599610328674316 L 16.68506050109863 19.4976634979248 L 12.91112995147705 19.49843788146973 L 12.91112995147705 13.33349990844727 L 12.91112995147705 12.83349990844727 L 12.41112995147705 12.83349990844727 L 8.591309547424316 12.83349990844727 L 8.091309547424316 12.83349990844727 L 8.091309547424316 13.33349990844727 L 8.091309547424316 19.49984741210938 Z"/><path class="c" d="M 7.591310024261475 18.99969482421875 L 7.591310024261475 13.33349990844727 C 7.591310024261475 12.78122043609619 8.039030075073242 12.33349990844727 8.591309547424316 12.33349990844727 L 12.41112995147705 12.33349990844727 C 12.96341037750244 12.33349990844727 13.41112995147705 12.78122043609619 13.41112995147705 13.33349990844727 L 13.41112995147705 18.99833488464355 L 16.18506050109863 18.99776458740234 L 16.18506050109863 9.599610328674316 C 16.18506050109863 9.047329902648926 16.63278007507324 8.599610328674316 17.18506050109863 8.599610328674316 L 18.42427062988281 8.599610328674316 L 10.50045967102051 1.354938745498657 L 2.57590913772583 8.599610328674316 L 3.818360090255737 8.599610328674316 C 4.370639801025391 8.599610328674316 4.818359851837158 9.047329902648926 4.818359851837158 9.599610328674316 L 4.818359851837158 18.99884605407715 L 7.591310024261475 18.99969482421875 M 8.591309547424316 20 L 8.590330123901367 20 L 3.818360090255737 19.9985408782959 L 3.818360090255737 9.599610328674316 L 0 9.599610328674316 L 10.50049018859863 0 L 21 9.599610328674316 L 17.18506050109863 9.599610328674316 L 17.18506050109863 19.99756050109863 L 12.41112995147705 19.9985408782959 L 12.41112995147705 13.33349990844727 L 8.591309547424316 13.33349990844727 L 8.591309547424316 19.9985408782959 L 8.591309547424316 20 Z"/></g></svg>