<svg xmlns="http://www.w3.org/2000/svg" width="21.026" height="17.536" viewBox="0 0 21.026 17.536"><defs><style>.a,.b{fill:#fff2db;}.a{stroke:#d9b97e;}.b{stroke-linejoin:round;}.c,.d,.f{fill:none;}.c,.d{stroke:#9a7736;}.d{stroke-linecap:round;}.e,.g{stroke:none;}.g{fill:#d9b97e;}</style></defs><g transform="translate(0 -0.04)"><g transform="translate(0 0)"><g class="a" transform="translate(0 3.04)"><path class="e" d="M0,0H19a2,2,0,0,1,2,2V12a2,2,0,0,1-2,2H2a2,2,0,0,1-2-2V0A0,0,0,0,1,0,0Z"/><path class="f" d="M1,.5H19A1.5,1.5,0,0,1,20.5,2V12A1.5,1.5,0,0,1,19,13.5H2A1.5,1.5,0,0,1,.5,12V1A.5.5,0,0,1,1,.5Z"/></g><g class="b" transform="translate(0 0.062)"><path class="e" d="M 5.311403274536133 3.504524230957031 L 0.5 3.504524230957031 L 0.5 0.4871047735214233 C 1.044846296310425 0.4834381937980652 1.944337606430054 0.4783042371273041 2.71028995513916 0.4783042371273041 C 3.570450067520142 0.4783042371273041 3.904819965362549 0.4848242402076721 4.033870220184326 0.4902942478656769 C 4.253880023956299 0.4996242225170135 4.477839946746826 0.9363142251968384 4.534160137176514 1.116854190826416 L 4.535079956054688 1.119784235954285 L 4.536029815673828 1.122714281082153 L 5.311403274536133 3.504524230957031 Z"/><path class="g" d="M 2.71028995513916 0.9783041477203369 C 2.147756338119507 0.9783041477203369 1.512948513031006 0.9810786247253418 1 0.9840042591094971 L 1 3.004524230957031 L 4.622809886932373 3.004524230957031 L 4.060589790344238 1.277484178543091 C 4.059319972991943 1.273584127426147 4.058070182800293 1.269684314727783 4.056849956512451 1.265764236450195 C 4.037157535552979 1.202640295028687 3.967609643936157 1.062429904937744 3.909065723419189 0.9865701198577881 C 3.733851671218872 0.9822897911071777 3.388517618179321 0.9783041477203369 2.71028995513916 0.9783041477203369 M 2.71028733253479 -0.02170014381408691 C 3.311127662658691 -0.02170014381408691 3.834933042526245 -0.01859021186828613 4.055049896240234 -0.009255647659301758 C 4.715330123901367 0.01874423027038574 5.011469841003418 0.9679341316223145 5.011469841003418 0.9679341316223145 L 6 4.004524230957031 L 0 4.004524230957031 L 0 -0.009255647659301758 C 0 -0.009255647659301758 1.508826732635498 -0.02170014381408691 2.71028733253479 -0.02170014381408691 Z"/></g></g><g transform="translate(9.645 6.51)"><g class="c" transform="translate(0.192 -0.47)"><circle class="e" cx="4" cy="4" r="4"/><circle class="f" cx="4" cy="4" r="3.5"/></g><line class="d" x2="3.871" y2="3.871" transform="translate(6.804 6.489)"/></g></g></svg>